<svg width="56" height="14" viewBox="0 0 56 14" fill="none" xmlns="http://www.w3.org/2000/svg">
<g clip-path="url(#clip0_544_320)">
<path d="M0 0H7.18802C8.08714 0 8.86761 0.147633 9.5311 0.441222C10.1946 0.734811 10.7294 1.12067 11.1321 1.5988C11.5349 2.07693 11.8324 2.59197 12.0212 3.14727C12.2101 3.70258 12.3037 4.24949 12.3037 4.78466C12.3037 6.41869 11.809 7.6568 10.8196 8.50066C9.83025 9.34452 8.50161 9.76561 6.83538 9.76561H4.29677V14.0017H0V0ZM4.29677 6.43212H5.95631C6.2939 6.43212 6.59138 6.41869 6.84541 6.39353C7.09944 6.36836 7.33341 6.30461 7.549 6.20731C7.76459 6.11001 7.93339 5.95902 8.05706 5.75602C8.18073 5.55303 8.24257 5.28292 8.24257 4.94236C8.24257 4.64206 8.19076 4.39712 8.08547 4.20755C7.98186 4.01798 7.83479 3.88041 7.64594 3.79653C7.45709 3.71096 7.25152 3.6556 7.03092 3.63044C6.80864 3.6036 6.53623 3.59185 6.21034 3.59185H4.29677V6.43547V6.43212Z" fill="#663EF2"/>
<path d="M13.751 0H25.2943V3.5885H18.0477V5.33325H24.6308V8.66675H18.0477V10.4115H25.5098V14H13.751V0Z" fill="#663EF2"/>
<path d="M31.3693 0H35.5692L40.6481 14H36.1942L35.6076 12.0002H31.1738L30.5488 14H26.2319L31.3693 0ZM34.7486 9.0006L33.4985 4.68736H33.4601L32.113 9.0006H34.7503H34.7486Z" fill="#663EF2"/>
<path d="M41.7227 0H46.0194V4.82325H46.0579L49.8867 0H55.1795L50.1207 5.47082L56.0001 14H50.6488L47.211 8.54931L46.0194 9.86291V14H41.7227V0Z" fill="#663EF2"/>
</g>
<defs>
<clipPath id="clip0_544_320">
<rect width="56" height="14" fill="white"/>
</clipPath>
</defs>
</svg>
